<?xml version="1.0" encoding="UTF-8" standalone="no"?>
<!-- Generator: Adobe Illustrator 24.3.0, SVG Export Plug-In . SVG Version: 6.00 Build 0)  -->

<svg
   xmlns:dc="http://purl.org/dc/elements/1.1/"
   xmlns:cc="http://creativecommons.org/ns#"
   xmlns:rdf="http://www.w3.org/1999/02/22-rdf-syntax-ns#"
   xmlns:svg="http://www.w3.org/2000/svg"
   xmlns="http://www.w3.org/2000/svg"
   xmlns:sodipodi="http://sodipodi.sourceforge.net/DTD/sodipodi-0.dtd"
   xmlns:inkscape="http://www.inkscape.org/namespaces/inkscape"
   version="1.1"
   id="Layer_1"
   x="0px"
   y="0px"
   viewBox="0 0 200 111.833"
   xml:space="preserve"
   sodipodi:docname="interesy_wspolnoty_1.svg"
   inkscape:version="0.92.3 (2405546, 2018-03-11)"
   width="200"
   height="111.833"><metadata
   id="metadata24"><rdf:RDF><cc:Work
       rdf:about=""><dc:format>image/svg+xml</dc:format><dc:type
         rdf:resource="http://purl.org/dc/dcmitype/StillImage" /><dc:title></dc:title></cc:Work></rdf:RDF></metadata><defs
   id="defs22" /><sodipodi:namedview
   pagecolor="#ffffff"
   bordercolor="#666666"
   borderopacity="1"
   objecttolerance="10"
   gridtolerance="10"
   guidetolerance="10"
   inkscape:pageopacity="0"
   inkscape:pageshadow="2"
   inkscape:window-width="1280"
   inkscape:window-height="909"
   id="namedview20"
   showgrid="false"
   inkscape:zoom="0.5"
   inkscape:cx="76.455631"
   inkscape:cy="69.730005"
   inkscape:window-x="0"
   inkscape:window-y="0"
   inkscape:window-maximized="1"
   inkscape:current-layer="Layer_1" />
<style
   type="text/css"
   id="style2">
	.st0{fill:#0069B4;}
</style>
<g
   id="Layer_1_1_"
   transform="translate(0,61.833)">
</g>
<g
   id="g17"
   transform="matrix(4.0814798,0,0,4.0814798,-2.0407396,-46.120495)">
	<path
   class="st0"
   d="m 25,26.1 c -6.5,0 -11.7,5.3 -11.7,11.7 0,0.4 0.4,0.8 0.8,0.8 H 36 c 0.4,0 0.8,-0.4 0.8,-0.8 C 36.7,31.4 31.4,26.1 25,26.1 Z m -10.1,11 c 0.4,-5.2 4.8,-9.3 10.1,-9.3 5.3,0 9.7,4.1 10.1,9.3 z"
   id="path5"
   inkscape:connector-curvature="0"
   style="fill:#0069b4" />
	<path
   class="st0"
   d="m 24.8,25.1 c 3.8,0 6.9,-3.1 6.9,-6.9 0,-3.8 -3.1,-6.9 -6.9,-6.9 -3.8,0 -6.9,3.1 -6.9,6.9 0,3.8 3.1,6.9 6.9,6.9 z m 0,-12.2 c 2.9,0 5.3,2.4 5.3,5.3 0,2.9 -2.4,5.3 -5.3,5.3 -2.9,0 -5.3,-2.4 -5.3,-5.3 0,-2.9 2.4,-5.3 5.3,-5.3 z"
   id="path7"
   inkscape:connector-curvature="0"
   style="fill:#0069b4" />
	<path
   class="st0"
   d="m 9.4,30.6 c 1.3,0 2.6,0.3 3.7,1 0.4,0.2 0.9,0.1 1.1,-0.3 0.2,-0.4 0.1,-0.9 -0.3,-1.1 C 12.5,29.4 11,29 9.4,29 c -4.9,0 -8.9,4 -8.9,8.9 0,0.4 0.4,0.8 0.8,0.8 h 10.1 c 0.4,0 0.8,-0.4 0.8,-0.8 0,-0.4 -0.4,-0.8 -0.8,-0.8 H 2.1 c 0.4,-3.7 3.5,-6.5 7.3,-6.5 z"
   id="path9"
   inkscape:connector-curvature="0"
   style="fill:#0069b4" />
	<path
   class="st0"
   d="m 9.2,27.7 c 2.9,0 5.3,-2.4 5.3,-5.3 0,-2.9 -2.3,-5.4 -5.3,-5.4 -3,0 -5.3,2.4 -5.3,5.3 0,3 2.4,5.4 5.3,5.4 z m 0,-9.1 c 2.1,0 3.7,1.7 3.7,3.7 0,2.1 -1.7,3.7 -3.7,3.7 -2,0 -3.7,-1.7 -3.7,-3.7 0,-2 1.7,-3.7 3.7,-3.7 z"
   id="path11"
   inkscape:connector-curvature="0"
   style="fill:#0069b4" />
	<path
   class="st0"
   d="m 40.6,29 c -1.6,0 -3.2,0.4 -4.5,1.2 -0.4,0.2 -0.5,0.7 -0.3,1.1 0.2,0.4 0.7,0.5 1.1,0.3 1.1,-0.7 2.4,-1 3.7,-1 3.8,0 6.9,2.9 7.3,6.5 h -9.3 c -0.4,0 -0.8,0.4 -0.8,0.8 0,0.4 0.4,0.8 0.8,0.8 h 10.1 c 0.4,0 0.8,-0.4 0.8,-0.8 C 49.6,33 45.6,29 40.6,29 Z"
   id="path13"
   inkscape:connector-curvature="0"
   style="fill:#0069b4" />
	<path
   class="st0"
   d="m 40.8,27.7 c 2.9,0 5.3,-2.4 5.3,-5.3 0,-2.9 -2.4,-5.4 -5.3,-5.4 -2.9,0 -5.3,2.4 -5.3,5.3 -0.1,3 2.3,5.4 5.3,5.4 z m 0,-9.1 c 2.1,0 3.7,1.7 3.7,3.7 0,2.1 -1.7,3.7 -3.7,3.7 -2.1,0 -3.7,-1.7 -3.7,-3.7 -0.1,-2 1.6,-3.7 3.7,-3.7 z"
   id="path15"
   inkscape:connector-curvature="0"
   style="fill:#0069b4" />
</g>
</svg>