<?xml version="1.0" encoding="utf-8"?>
<!-- Generator: Adobe Illustrator 24.3.0, SVG Export Plug-In . SVG Version: 6.00 Build 0)  -->
<svg version="1.1" id="Layer_1" xmlns="http://www.w3.org/2000/svg" xmlns:xlink="http://www.w3.org/1999/xlink" x="0px" y="0px"
	 viewBox="0 0 50 50" style="enable-background:new 0 0 50 50;" xml:space="preserve">
<style type="text/css">
	.st0{fill:#0069B4;stroke:#0069B4;stroke-width:0.981;stroke-miterlimit:10;}
</style>
<g id="_x37_21-_gear__x2C__setting__x2C_engine__x2C_">
	<g>
		<g>
			<path class="st0" d="M27.8,49.3h-5.6c-1.5,0-2.8-1.3-2.8-2.8V41c-2-0.7-3.8-1.8-5.5-3.2l-4.8,2.8C8.7,40.8,8.2,41,7.8,41
				c-1,0-1.9-0.5-2.4-1.4l-2.8-4.9c-0.8-1.3-0.3-3,1-3.8l4.8-2.8c-0.2-1-0.3-2.1-0.3-3.1c0-1.1,0.1-2.1,0.3-3.1l-4.8-2.8
				c-1.3-0.8-1.8-2.5-1-3.8l2.8-4.8C5.8,9.6,6.8,9,7.8,9c0.5,0,1,0.1,1.4,0.4l4.8,2.8c1.6-1.4,3.5-2.5,5.4-3.1V3.5
				c0-1.5,1.3-2.8,2.8-2.8h5.6c1.5,0,2.8,1.3,2.8,2.8V9c2,0.7,3.9,1.8,5.5,3.1l4.8-2.8C41.3,9.2,41.8,9,42.2,9c1,0,1.9,0.5,2.4,1.4
				l2.8,4.8c0.8,1.3,0.3,3-1,3.8l-4.8,2.8c0.2,1,0.3,2.1,0.3,3.1c0,1.1-0.1,2.1-0.3,3.1l4.8,2.8c0.6,0.4,1.1,1,1.3,1.7
				c0.2,0.7,0.1,1.5-0.3,2.1l-2.8,4.9c-0.5,0.9-1.4,1.4-2.4,1.4c-0.5,0-1-0.1-1.4-0.4L36,37.8c-1.6,1.4-3.5,2.5-5.5,3.1v5.5
				C30.6,48.1,29.3,49.3,27.8,49.3z M14,36.3c0.2,0,0.3,0.1,0.5,0.2c1.7,1.5,3.7,2.7,5.8,3.4c0.3,0.1,0.5,0.4,0.5,0.7v6
				c0,0.8,0.6,1.4,1.4,1.4h5.6c0.8,0,1.4-0.6,1.4-1.4v-6c0-0.3,0.2-0.6,0.5-0.7c2.1-0.7,4.1-1.8,5.8-3.3c0.2-0.2,0.6-0.2,0.8-0.1
				l5.2,3c0.2,0.1,0.5,0.2,0.7,0.2c0.5,0,1-0.3,1.2-0.7l2.8-4.9c0.2-0.3,0.2-0.7,0.1-1.1c-0.1-0.4-0.3-0.7-0.7-0.9l-5.2-3
				c-0.3-0.2-0.4-0.5-0.3-0.7c0.2-1.1,0.4-2.2,0.4-3.3c0-1.1-0.1-2.3-0.4-3.3c-0.1-0.3,0.1-0.6,0.3-0.7l5.2-3
				c0.7-0.4,0.9-1.3,0.5-1.9l-2.8-4.8c-0.3-0.4-0.7-0.7-1.2-0.7c-0.2,0-0.5,0.1-0.7,0.2l-5.2,3c-0.3,0.2-0.6,0.1-0.8-0.1
				c-1.7-1.5-3.7-2.7-5.8-3.3c-0.3-0.1-0.5-0.4-0.5-0.7v-6c0-0.8-0.6-1.4-1.4-1.4h-5.6c-0.8,0-1.4,0.6-1.4,1.4v6
				c0,0.3-0.2,0.6-0.5,0.7c-2.1,0.7-4.1,1.8-5.8,3.3c-0.2,0.2-0.5,0.2-0.8,0.1l-5.2-3c-0.2-0.1-0.5-0.2-0.7-0.2
				c-0.5,0-1,0.3-1.2,0.7L3.7,16c-0.4,0.7-0.2,1.5,0.5,1.9l5.2,3c0.3,0.2,0.4,0.5,0.3,0.7c-0.2,1.1-0.4,2.2-0.4,3.3
				c0,1.1,0.1,2.3,0.4,3.3c0.1,0.3-0.1,0.6-0.3,0.7l-5.2,3c-0.7,0.4-0.9,1.3-0.5,1.9l2.8,4.9c0.2,0.4,0.7,0.7,1.2,0.7
				c0.2,0,0.5-0.1,0.7-0.2l5.2-3C13.8,36.3,13.9,36.3,14,36.3z"/>
		</g>
		<g>
			<path class="st0" d="M25,33.4c-4.6,0-8.4-3.8-8.4-8.4c0-4.6,3.8-8.4,8.4-8.4c4.6,0,8.4,3.8,8.4,8.4C33.4,29.6,29.6,33.4,25,33.4z
				 M25,18c-3.9,0-7,3.1-7,7s3.1,7,7,7c3.9,0,7-3.1,7-7S28.9,18,25,18z"/>
		</g>
	</g>
</g>
<g id="Layer_1_1_">
</g>
</svg>
